<svg t="1755182175749" class="icon" viewBox="0 0 1024 1024" version="1.1" xmlns="http://www.w3.org/2000/svg" p-id="8795" width="200" height="200"><path d="M490.666667 640l21.333333 169.344" fill="#DD2C00" p-id="8796"></path><path d="M661.333333 830.677333c-21.333333 0-42.666667 21.333333-42.666666 42.666667l-96-21.333333c-10.666667 0-32-14.336-32-32a32 32 0 0 1 32-32H640c-21.333333 21.333333 21.333333 42.666667 21.333333 42.666666z" fill="#DD2C00" p-id="8797"></path><path d="M618.666667 874.666667c-21.333333 0-42.666667 21.333333-42.666667 42.666666l-96-21.333333c-10.666667 0-32-14.336-32-32a32 32 0 0 1 32-32H597.333333c-21.333333 21.333333 21.333333 42.666667 21.333334 42.666667z" fill="#FF3D00" p-id="8798"></path><path d="M132.096 683.285333A725.461333 725.461333 0 0 0 106.666667 768c469.333333 0 470.677333-249.813333 470.165333-323.008-1.109333 60.266667-37.546667 247.594667-444.736 238.293333z" fill="#78909C" p-id="8799"></path><path d="M704 151.082667s128-21.333333 170.666667 85.333333c-64 85.333333-170.666667 60.586667-170.666667 60.586667v-145.92z" fill="#FF5722" p-id="8800"></path><path d="M746.666667 426.666667l-42.666667-129.664L490.666667 213.333333v128c-20.352 20.352-273.706667 60.373333-371.008 379.114667 3.946667-12.8 8.042667-25.237333 12.437333-37.162667 407.189333 9.301333 443.626667-178.048 444.736-238.293333 0.064 8.128-0.298667 18.794667-1.472 31.082667C578.218667 446.336 576 426.666667 576 426.666667h170.666667z" fill="#455A64" p-id="8801"></path><path d="M618.666667 213.333333m-128 0a128 128 0 1 0 256 0 128 128 0 1 0-256 0Z" fill="#455A64" p-id="8802"></path><path d="M746.666667 426.666667h-170.666667s0.768 7.104 0.810667 19.072l0.021333-0.746667C577.344 518.186667 576 768 106.666667 768c850.389333 70.869333 640-341.333333 640-341.333333zM746.666667 213.333333c0 47.146667-38.186667 85.333333-85.333334 85.333334s-149.333333-85.333333-149.333333-85.333334 102.186667-85.333333 149.333333-85.333333 85.333333 38.208 85.333334 85.333333z" fill="#CFD8DC" p-id="8803"></path><path d="M661.333333 192a21.333333 21.333333 0 1 1-42.666666 0c0-11.797333 21.333333-42.666667 21.333333-42.666667s21.333333 30.869333 21.333333 42.666667z" fill="#263238" p-id="8804"></path></svg>