<svg t="1755839483219" class="icon" viewBox="0 0 1024 1024" version="1.1" xmlns="http://www.w3.org/2000/svg" p-id="4877" width="200" height="200"><path d="M512 512m-512 0a512 512 0 1 0 1024 0 512 512 0 1 0-1024 0Z" p-id="4878"></path><path d="M862.4 294.4c-19.2 28.8-43.2 54.4-70.4 75.2v17.6c0 104-40 204.8-110.4 283.2C606.4 755.2 496 800 384 795.2c-78.4 1.6-155.2-20.8-220.8-64 11.2 1.6 24 1.6 35.2 1.6 65.6 0 128-20.8 179.2-62.4-30.4-1.6-59.2-11.2-83.2-28.8s-41.6-41.6-51.2-70.4c9.6 1.6 17.6 3.2 27.2 3.2 12.8 0 25.6-1.6 38.4-4.8-32-6.4-62.4-22.4-83.2-49.6-22.4-25.6-33.6-57.6-33.6-91.2v-3.2c19.2 11.2 41.6 19.2 64 19.2-40-27.2-64-72-62.4-120 0-24 6.4-48 17.6-70.4 72 91.2 180.8 144 297.6 148.8-1.6-9.6-3.2-20.8-3.2-32-1.6-78.4 62.4-142.4 140.8-144h3.2c40-1.6 78.4 14.4 105.6 44.8 32-6.4 62.4-19.2 91.2-35.2-9.6 33.6-32 60.8-62.4 78.4 24-3.2 52.8-9.6 78.4-20.8z" fill="#FFFFFF" p-id="4879"></path></svg>