<svg t="1755185029561" class="icon" viewBox="0 0 1024 1024" version="1.1" xmlns="http://www.w3.org/2000/svg" p-id="9880" width="200" height="200"><path d="M128 469.33h341.33V128H128v341.33z m85.33-256H384V384H213.33V213.33zM938.16 300.03L724.4 86.27 509.54 301.12 723.3 514.88l214.86-214.85zM724.4 206.95l93.08 93.08-94.18 94.17-93.08-93.08 94.18-94.17zM128 896h341.33V554.67H128V896z m85.33-256H384v170.67H213.33V640zM554.67 896H896V554.67H554.67V896zM640 640h170.67v170.67H640V640z" p-id="9881"></path></svg><svg xmlns="http://www.w3.org/2000/svg" xmlns:xlink="http://www.w3.org/1999/xlink" aria-hidden="true" role="img" class="iconify iconify--logos" width="37.07" height="36" preserveAspectRatio="xMidYMid meet" viewBox="0 0 256 198"><path fill="#41B883" d="M204.8 0H256L128 220.8L0 0h97.92L128 51.2L157.44 0h47.36Z"></path><path fill="#41B883" d="m0 0l128 220.8L256 0h-51.2L128 132.48L50.56 0H0Z"></path><path d="M50.56 0L128 133.12L204.8 0h-47.36L128 51.2L97.92 0H50.56Z"></path></svg>