<svg t="1756733076467" class="icon" viewBox="0 0 1024 1024" version="1.1" xmlns="http://www.w3.org/2000/svg" p-id="12289" width="200" height="200"><path d="M608 646.4c0-12.8-8.533333-21.333333-21.333333-21.333333h-149.333334c-12.8 0-21.333333 8.533333-21.333333 21.333333v256h192v-256z m-170.666667-64h149.333334c36.266667 0 64 27.733333 64 64v298.666667h-277.333334v-298.666667c0-36.266667 27.733333-64 64-64z" fill="#FE5338" p-id="12290"></path><path d="M972.8 426.666667l-448-341.333334h-2.133333c-2.133333 0-2.133333-2.133333-4.266667-2.133333s-2.133333 0-4.266667-2.133333h-8.533333c-2.133333 0-2.133333 0-4.266667 2.133333-2.133333 0-2.133333 2.133333-4.266666 2.133333h-2.133334l-448 341.333334c-8.533333 6.4-10.666667 21.333333-4.266666 29.866666 6.4 8.533333 21.333333 10.666667 29.866666 4.266667l61.866667-46.933333v424.533333c0 57.6 40.533333 106.666667 91.733333 106.666667H768c51.2 0 91.733333-49.066667 91.733333-106.666667V396.8l83.2 64c8.533333 6.4 23.466667 4.266667 29.866667-4.266667 10.666667-10.666667 8.533333-23.466667 0-29.866666z m-151.466667 411.733333c0 36.266667-23.466667 64-49.066666 64H230.4c-25.6 0-49.066667-27.733333-49.066667-64V379.733333L512 128l309.333333 234.666667v475.733333z" fill="#333333" p-id="12291"></path></svg>